<?xml version="1.0" standalone="no"?>
<!DOCTYPE svg PUBLIC "-//W3C//DTD SVG 20010904//EN"
 "http://www.w3.org/TR/2001/REC-SVG-20010904/DTD/svg10.dtd">
<svg version="1.0" xmlns="http://www.w3.org/2000/svg"
 width="512.000000pt" height="512.000000pt" viewBox="0 0 512.000000 512.000000"
 preserveAspectRatio="xMidYMid meet">
<metadata>
Created by potrace 1.14, written by Peter Selinger 2001-2017
</metadata>
<g transform="translate(0.000000,512.000000) scale(0.100000,-0.100000)"
fill="#000000" stroke="none">
<path d="M800 4880 l0 -80 -80 0 -80 0 0 -80 0 -80 80 0 80 0 0 -80 0 -80 80
0 80 0 0 80 0 80 80 0 80 0 0 80 0 80 -80 0 -80 0 0 80 0 80 -80 0 -80 0 0
-80z"/>
<path d="M2517 4953 c-3 -2 -23 -9 -44 -14 -21 -5 -46 -12 -55 -14 -10 -3 -26
-7 -35 -10 -108 -28 -303 -80 -361 -96 -40 -11 -81 -22 -90 -24 -9 -3 -35 -9
-57 -15 -22 -6 -47 -12 -55 -14 -28 -7 -475 -127 -493 -132 -9 -3 -24 -19 -33
-36 -14 -27 -15 -99 -11 -627 2 -328 7 -614 11 -636 78 -483 239 -826 510
-1089 300 -290 689 -392 1061 -277 300 93 588 361 765 711 56 111 138 337 154
427 2 15 12 63 20 106 29 142 31 206 31 800 l0 588 -25 19 c-14 11 -45 24 -70
30 -25 6 -52 12 -60 14 -277 75 -420 113 -530 141 -74 20 -148 40 -165 45 -16
5 -84 23 -150 40 -66 17 -142 38 -170 47 -52 15 -139 25 -148 16z"/>
<path d="M4160 4880 l0 -80 -80 0 -80 0 0 -80 0 -80 80 0 80 0 0 -80 0 -80 80
0 80 0 0 80 0 80 80 0 80 0 0 80 0 80 -80 0 -80 0 0 80 0 80 -80 0 -80 0 0
-80z"/>
<path d="M320 4400 l0 -80 -80 0 -80 0 0 -80 0 -80 80 0 80 0 0 -80 0 -80 80
0 80 0 0 80 0 80 80 0 80 0 0 80 0 80 -80 0 -80 0 0 80 0 80 -80 0 -80 0 0
-80z"/>
<path d="M4640 4400 l0 -80 -80 0 -80 0 0 -80 0 -80 80 0 80 0 0 -80 0 -80 80
0 80 0 0 80 0 80 80 0 80 0 0 80 0 80 -80 0 -80 0 0 80 0 80 -80 0 -80 0 0
-80z"/>
<path d="M640 2880 l0 -80 -80 0 -80 0 0 -80 0 -80 80 0 80 0 0 -80 0 -80 80
0 80 0 0 80 0 80 80 0 80 0 0 80 0 80 -80 0 -80 0 0 80 0 80 -80 0 -80 0 0
-80z"/>
<path d="M4320 2880 l0 -80 -80 0 -80 0 0 -80 0 -80 80 0 80 0 0 -80 0 -80 80
0 80 0 0 80 0 80 80 0 80 0 0 80 0 80 -80 0 -80 0 0 80 0 80 -80 0 -80 0 0
-80z"/>
<path d="M1120 2400 l0 -80 -80 0 -80 0 0 -80 0 -80 80 0 80 0 0 -80 0 -80 80
0 80 0 0 80 0 80 80 0 80 0 0 80 0 80 -80 0 -80 0 0 80 0 80 -80 0 -80 0 0
-80z"/>
<path d="M3840 2400 l0 -80 -80 0 -80 0 0 -80 0 -80 80 0 80 0 0 -80 0 -80 80
0 80 0 0 80 0 80 80 0 80 0 0 80 0 80 -80 0 -80 0 0 80 0 80 -80 0 -80 0 0
-80z"/>
<path d="M198 1985 c-15 -9 -30 -26 -33 -38 -3 -12 -4 -392 -3 -844 3 -769 4
-823 21 -840 19 -19 73 -23 147 -10 51 9 88 15 128 21 15 2 38 7 52 10 14 3
41 8 60 11 19 2 46 7 60 9 14 2 46 7 72 11 28 3 56 15 72 30 22 20 26 33 26
80 l0 55 114 0 113 0 289 -96 c159 -52 298 -99 309 -104 11 -5 97 -34 191 -64
l172 -56 615 0 c424 0 624 3 644 11 34 13 293 105 348 124 22 7 103 35 180 63
77 27 239 84 360 126 388 136 389 136 444 206 140 178 13 443 -214 443 -49 0
-15 9 -654 -179 l-523 -154 -304 0 -304 0 -82 46 c-46 26 -101 56 -123 68 -22
12 -80 44 -129 72 l-88 49 423 5 c233 3 425 7 426 8 1 1 9 15 18 32 21 40 21
279 1 318 -8 15 -54 66 -103 113 -76 75 -94 87 -133 94 -25 4 -54 9 -65 11
-11 3 -42 9 -70 15 -27 6 -61 12 -75 15 -14 2 -36 7 -50 10 -14 3 -36 8 -50
11 -14 2 -216 42 -448 89 l-424 84 -252 0 -253 0 -149 -60 c-82 -33 -150 -60
-151 -60 -2 0 -3 29 -3 64 0 107 -16 129 -100 141 -25 3 -67 10 -95 16 -27 5
-63 11 -80 13 -16 3 -61 10 -100 16 -38 7 -79 14 -90 15 -102 14 -111 14 -137
0z"/>
</g>
</svg>
